<?xml version="1.0" encoding="UTF-8" standalone="no"?>
<!-- Created with Inkscape (http://www.inkscape.org/) -->

<svg
   width="600"
   height="400"
   viewBox="0 0 158.75 105.83333"
   version="1.1"
   id="svg1"
   xml:space="preserve"
   inkscape:version="1.4 (86a8ad7, 2024-10-11)"
   sodipodi:docname="5280 Synchro Logo.svg"
   xmlns:inkscape="http://www.inkscape.org/namespaces/inkscape"
   xmlns:sodipodi="http://sodipodi.sourceforge.net/DTD/sodipodi-0.dtd"
   xmlns:xlink="http://www.w3.org/1999/xlink"
   xmlns="http://www.w3.org/2000/svg"
   xmlns:svg="http://www.w3.org/2000/svg"><sodipodi:namedview
     id="namedview1"
     pagecolor="#ffffff"
     bordercolor="#666666"
     borderopacity="1.0"
     inkscape:showpageshadow="2"
     inkscape:pageopacity="0.0"
     inkscape:pagecheckerboard="0"
     inkscape:deskcolor="#d1d1d1"
     inkscape:document-units="mm"
     inkscape:zoom="0.39776585"
     inkscape:cx="470.12583"
     inkscape:cy="-290.37183"
     inkscape:window-width="1059"
     inkscape:window-height="821"
     inkscape:window-x="1360"
     inkscape:window-y="511"
     inkscape:window-maximized="0"
     inkscape:current-layer="layer1"
     showguides="true" /><defs
     id="defs1"><rect
       x="30.220833"
       y="105.32849"
       width="277.76501"
       height="85.773834"
       id="rect41" /><pattern
       inkscape:collect="always"
       xlink:href="#Strips1_1"
       preserveAspectRatio="xMidYMid"
       id="pattern18"
       patternTransform="matrix(0,28,-28,0,0,0)"
       x="1.25"
       y="0" /><pattern
       inkscape:collect="always"
       patternUnits="userSpaceOnUse"
       width="2"
       height="10"
       patternTransform="translate(0,0) scale(2,2)"
       preserveAspectRatio="xMidYMid"
       id="Strips1_1"
       style="fill:#45afdc"
       inkscape:stockid="Stripes 01 (1:1)"
       inkscape:isstock="true"
       inkscape:label="Stripes 01 (1:1)">
      <rect
   style="stroke:none"
   x="0"
   y="-0.5"
   width="1"
   height="11"
   id="rect134" />
    </pattern><rect
       x="19.554655"
       y="19.999081"
       width="268.4321"
       height="121.32775"
       id="rect1" /></defs><g
     inkscape:label="Layer 1"
     inkscape:groupmode="layer"
     id="layer1"><rect
       style="fill:#1a1a1a;fill-opacity:1;stroke:#000000;stroke-width:0.26579;stroke-dasharray:none;stroke-opacity:1"
       id="rect55"
       width="158.34554"
       height="33.791767"
       x="0.14918777"
       y="42.720295"
       inkscape:label="Dark Rectangle" /><path
       id="text41"
       style="font-weight:600;font-size:48px;line-height:1.25;font-family:'Wix Madefor Text';-inkscape-font-specification:'Wix Madefor Text Semi-Bold';white-space:pre;fill:#af1141;stroke:#000000;stroke-width:1.13386;stroke-dasharray:none;stroke-opacity:1"
       d="m 46.204974,114.64024 c -2.464,0 -4.656172,0.43092 -6.576172,1.29492 -1.92,0.86399 -3.423719,2.08043 -4.511719,3.64844 -1.056,1.536 -1.583984,3.34382 -1.583984,5.42382 0,2.72 0.992562,4.8656 2.976562,6.4336 1.984,1.536 5.118251,2.63854 9.406251,3.31054 2.912,0.48 4.992234,1.13675 6.240234,1.96875 1.248,0.80001 1.873047,1.95108 1.873047,3.45508 0,1.6 -0.671625,2.89667 -2.015625,3.88867 -1.344,0.96 -3.168656,1.43946 -5.472656,1.43946 -1.376,0 -2.719251,-0.19217 -4.031251,-0.57617 -1.28,-0.416 -2.481562,-1.0074 -3.601562,-1.7754 -1.088,-0.8 -2.063734,-1.74403 -2.927734,-2.83203 l -3.839844,3.83985 c 1.76,2.08 3.871937,3.66395 6.335937,4.75195 2.464,1.056 5.135625,1.58399 8.015625,1.58399 2.656,0 4.976938,-0.43093 6.960938,-1.29493 2.016,-0.896 3.583125,-2.14414 4.703125,-3.74414 1.12,-1.632 1.679688,-3.48836 1.679688,-5.56836 0,-2.912 -1.022313,-5.19928 -3.070313,-6.86328 -2.016,-1.69599 -5.249266,-2.89755 -9.697266,-3.60156 -2.816,-0.448 -4.816,-1.0394 -6,-1.77539 -1.152,-0.736 -1.728515,-1.74344 -1.728515,-3.02344 0,-1.6 0.625046,-2.83326 1.873046,-3.69726 1.248,-0.896 2.912188,-1.34375 4.992188,-1.34375 1.984,0 3.791828,0.41604 5.423828,1.24804 1.632,0.8 3.104016,2.01644 4.416016,3.64844 l 3.744141,-3.83984 c -1.664,-1.952 -3.664,-3.44085 -6,-4.46485 -2.304,-1.024 -4.831985,-1.53515 -7.583985,-1.53515 z m 100.937506,0.52734 v 34.56055 h 5.56835 V 138.3043 c 0,-2.784 0.55969,-4.91277 1.67969,-6.38477 1.12,-1.504 2.56031,-2.25586 4.32031,-2.25586 1.44,0 2.57621,0.54482 3.40821,1.63282 0.832,1.05599 1.24804,2.57654 1.24804,4.56054 v 13.8711 h 5.56641 v -14.44727 c 0,-3.328 -0.78356,-5.87282 -2.35156,-7.63281 -1.536,-1.792 -3.66477,-2.6875 -6.38477,-2.6875 -1.312,0 -2.54331,0.2724 -3.69531,0.8164 -1.152,0.544 -2.14456,1.42268 -2.97656,2.63868 -0.31892,0.47199 -0.58199,1.02314 -0.81446,1.61718 v -14.86523 z m -41.7129,9.79297 c -1.152,0 -2.3199,0.23875 -3.5039,0.71875 -1.152,0.48 -2.176266,1.31209 -3.072268,2.49609 -0.383167,0.52508 -0.695395,1.15764 -0.958984,1.86524 v -4.3125 h -5.519532 v 24 h 5.566407 V 138.3043 c 0,-2.048 0.289234,-3.69536 0.865234,-4.94336 0.576,-1.28 1.311033,-2.20916 2.207033,-2.78516 0.896,-0.60799 1.87173,-0.91211 2.92773,-0.91211 1.408,0 2.52933,0.52799 3.36133,1.58399 0.864,1.024 1.29492,2.56137 1.29492,4.60937 v 13.8711 h 5.56836 v -14.44727 c 0,-3.36 -0.78356,-5.92165 -2.35156,-7.68164 -1.536,-1.76 -3.66477,-2.63867 -6.38477,-2.63867 z m 26.73633,0 c -2.432,0 -4.59247,0.54286 -6.48047,1.63086 -1.856,1.088 -3.31118,2.59368 -4.36718,4.51367 -1.056,1.92 -1.58399,4.12705 -1.58399,6.62305 0,2.464 0.52799,4.67104 1.58399,6.62304 1.056,1.92 2.51118,3.42568 4.36718,4.51368 1.888,1.088 4.0336,1.63086 6.4336,1.63086 2.048,0 3.91923,-0.39923 5.61523,-1.19922 1.728,-0.83201 3.18319,-1.99991 4.36719,-3.50391 l -3.55078,-3.50391 c -0.736,1.12001 -1.61663,1.98381 -2.64063,2.5918 -1.024,0.608 -2.17507,0.91211 -3.45507,0.91211 -2.016,0 -3.68019,-0.73698 -4.99219,-2.20898 -1.312,-1.472 -1.96875,-3.42347 -1.96875,-5.85547 0,-2.464 0.63992,-4.41547 1.91992,-5.85547 1.312,-1.472 2.97619,-2.20899 4.99219,-2.20899 1.28,0 2.43108,0.30412 3.45508,0.91211 1.024,0.608 1.90462,1.4718 2.64062,2.5918 l 3.59961,-3.55078 c -2.464,-3.10399 -5.77555,-4.65625 -9.93555,-4.65625 z m 73.01172,0 c -2.432,0 -4.59247,0.54286 -6.48047,1.63086 -1.856,1.088 -3.31118,2.59368 -4.36718,4.51367 -1.024,1.92 -1.53711,4.12705 -1.53711,6.62305 0,2.464 0.51311,4.67104 1.53711,6.62304 1.056,1.92 2.51118,3.42568 4.36718,4.51368 1.888,1.088 4.04847,1.63086 6.48047,1.63086 2.432,0 4.57564,-0.54286 6.43164,-1.63086 1.888,-1.088 3.36002,-2.59368 4.41602,-4.51368 1.056,-1.952 1.58398,-4.15904 1.58398,-6.62304 0,-2.496 -0.52798,-4.70305 -1.58398,-6.62305 -1.056,-1.91999 -2.52802,-3.42567 -4.41602,-4.51367 -1.856,-1.088 -3.99964,-1.63086 -6.43164,-1.63086 z m -16.22656,0.33594 c -1.152,0 -2.32186,0.25557 -3.50586,0.76757 -1.184,0.48 -2.23997,1.3121 -3.16797,2.4961 -0.40443,0.51999 -0.73377,1.1516 -1.00781,1.86719 v -4.69922 h -5.51953 v 24 h 5.56836 v -10.17578 c 0,-2.08 0.30411,-3.79272 0.91211,-5.13672 0.64,-1.344 1.52062,-2.33461 2.64062,-2.97461 1.12,-0.64 2.41472,-0.96094 3.88672,-0.96094 h 1.15234 v -5.18359 z m -126.144533,0.43164 9.648437,24.0957 -0.625,1.77539 c -0.32,0.96001 -0.76775,1.66528 -1.34375,2.11328 -0.544,0.448 -1.359265,0.67188 -2.447265,0.67188 h -2.832032 v 4.65625 h 3.070313 c 2.24,0 3.984422,-0.52799 5.232422,-1.58399 1.28,-1.056 2.321094,-2.57654 3.121094,-4.56054 l 10.847656,-27.16797 h -5.617188 l -6.667968,18.15039 -6.626954,-18.15039 z m 142.371093,3.93554 c 1.344,0 2.51191,0.35265 3.50391,1.05664 0.992,0.672 1.76069,1.61604 2.30469,2.83204 0.576,1.184 0.86328,2.57578 0.86328,4.17578 0,1.568 -0.28728,2.95978 -0.86328,4.17578 -0.544,1.216 -1.31269,2.17685 -2.30469,2.88086 -0.992,0.67199 -2.15991,1.00781 -3.50391,1.00781 -1.312,0 -2.46503,-0.33582 -3.45703,-1.00781 -0.992,-0.70401 -1.77556,-1.66486 -2.35156,-2.88086 -0.544,-1.216 -0.81641,-2.60778 -0.81641,-4.17578 0,-1.6 0.27241,-2.99178 0.81641,-4.17578 0.576,-1.216 1.35956,-2.16004 2.35156,-2.83204 0.992,-0.70399 2.14503,-1.05664 3.45703,-1.05664 z"
       transform="matrix(0.26458333,0,0,0.26458333,-1.52236,-6.5261133)"
       inkscape:label="Swag Synchro" /><text
       xml:space="preserve"
       style="font-size:26.4583px;line-height:1.25;font-family:sans-serif;letter-spacing:-1.71979px;stroke-width:0.264583;fill:#ffffff"
       x="62.609459"
       y="67.681412"
       id="text55"
       inkscape:label="Print Synchro"><tspan
         sodipodi:role="line"
         id="tspan55"
         style="font-style:normal;font-variant:normal;font-weight:500;font-stretch:normal;font-size:26.4583px;font-family:'Wix Madefor Text';-inkscape-font-specification:'Wix Madefor Text Medium';letter-spacing:-1.71979px;stroke-width:0.264583;fill:#ffffff"
         x="62.609459"
         y="67.681412">Synchro</tspan></text><g
       id="g54"
       inkscape:label="5280 Logo"
       transform="translate(0.24944009,45.980122)"
       inkscape:export-filename="5280 Synchro web.png"
       inkscape:export-xdpi="96"
       inkscape:export-ydpi="96"><g
         id="g45"
         inkscape:label="5280 White"
         style="display:inline;fill:url(#pattern18);fill-opacity:1;stroke:#000000;stroke-opacity:1"
         transform="translate(-16.109444,-3.0572668)"><path
           id="path42"
           style="font-weight:800;font-size:100px;line-height:1.25;font-family:'Wix Madefor Text';-inkscape-font-specification:'Wix Madefor Text Ultra-Bold';white-space:pre;mix-blend-mode:normal;fill:#ffffff;fill-opacity:1;stroke:none;stroke-opacity:1"
           inkscape:label="Letter 5"
           d="M 29.654023,41.000682 24.755586,82.39912 h 13.898437 c 1.133333,-1.933333 2.633334,-3.398438 4.500001,-4.398438 1.866667,-1 3.866667,-1.5 6,-1.5 2.266667,0 4.200781,0.5 5.800781,1.5 1.6,1 2.832552,2.399219 3.699219,4.199219 0.933333,1.733333 1.40039,3.766276 1.40039,6.099609 0,3.466667 -1.133724,6.367839 -3.40039,8.701172 -2.2,2.266667 -5.165105,3.398438 -8.898438,3.398438 -3.066667,0 -5.967838,-0.833333 -8.701172,-2.5 -2.666667,-1.666667 -4.866276,-4 -6.599609,-7 l -10.5,10.70117 c 2.800001,4 6.466667,7.09883 11,9.29883 4.6,2.13333 9.534114,3.20117 14.800781,3.20117 5.6,0 10.565105,-1.13372 14.898438,-3.40039 4.160984,-2.24053 7.422285,-5.2579 9.800781,-9.03516 v -2.76562 l 2.486328,-2.246094 c 1.00584,-2.800623 1.513672,-5.816938 1.513672,-9.052734 0,-4.733333 -0.934114,-8.932943 -2.800781,-12.59961 -1.866666,-3.666667 -4.498438,-6.567839 -7.898438,-8.701172 -3.333333,-2.133333 -7.201562,-3.199219 -11.601562,-3.199219 -3.733334,0 -7.09961,0.800391 -10.09961,2.400391 -1.292719,0.67574 -2.463273,1.502805 -3.548828,2.4375 L 42.238008,54.399119 H 72.325899 L 70.755586,52.79951 c 0.77809,-0.972612 1.580077,-1.885377 2.398438,-2.753906 v -9.044922 z"
           transform="matrix(0.26458333,0,0,0.26458333,13.404939,-4.8210746)" /><path
           id="path43"
           style="font-weight:800;font-size:100px;line-height:1.25;font-family:'Wix Madefor Text';-inkscape-font-specification:'Wix Madefor Text Ultra-Bold';white-space:pre;mix-blend-mode:normal;fill:#ffffff;fill-opacity:1;stroke:none;stroke-width:0.264583;stroke-opacity:1"
           inkscape:label="Letter O"
           d="m 66.441939,5.6032756 c -1.41111,0 -2.707362,0.247151 -3.889168,0.74104 -1.181807,0.4938889 -2.205273,1.1820124 -3.06958,2.0639567 -0.420182,0.4287569 -0.793452,0.8956778 -1.121895,1.3993978 0.05821,0.2973109 0.09043,0.6058659 0.09043,0.9286259 0,0.9525 -0.282532,1.799063 -0.846976,2.539896 -0.217351,0.287463 -0.473386,0.548493 -0.762745,0.787032 -0.05089,0.427188 -0.07833,0.86559 -0.08165,1.315682 0.590299,0.378923 1.084316,0.83307 1.479496,1.363741 0.635,0.829028 0.952397,1.781218 0.952397,2.85719 0,0.765482 -0.149893,1.468645 -0.441834,2.112533 0.227034,0.297754 0.469802,0.582774 0.732772,0.851111 0.864307,0.881944 1.887773,1.569551 3.06958,2.06344 1.181806,0.49389 2.478058,0.74104 3.889168,0.74104 1.411111,0 2.698647,-0.24715 3.862814,-0.74104 1.181806,-0.493889 2.204757,-1.181496 3.069063,-2.06344 0.864307,-0.881944 1.534997,-1.922846 2.011247,-3.12229 0.47625,-1.217084 0.714168,-2.54 0.714168,-3.96875 0,-1.42875 -0.237918,-2.742951 -0.714168,-3.942395 C 74.908813,10.330601 74.238123,9.2902167 73.373816,8.4082723 72.50951,7.526328 71.486559,6.8382045 70.304753,6.3443156 69.140586,5.8504266 67.85305,5.6032756 66.441939,5.6032756 Z" /><path
           id="path44"
           style="font-weight:800;font-size:100px;line-height:1.25;font-family:'Wix Madefor Text';-inkscape-font-specification:'Wix Madefor Text Ultra-Bold';white-space:pre;mix-blend-mode:normal;fill:#ffffff;fill-opacity:1;stroke:none;stroke-width:0.264583;stroke-opacity:1"
           inkscape:label="Letter 8"
           d="m 51.863501,5.6032756 c -1.27,0 -2.407811,0.220486 -3.413228,0.6614583 -0.987777,0.4409723 -1.764097,1.0496172 -2.32854,1.8257283 -0.362299,0.4868386 -0.6067,1.0252769 -0.73639,1.613855 0.171568,0.5733868 0.26045,1.1983918 0.26045,1.8789548 0,0.278608 -0.01737,0.550974 -0.04858,0.818555 0.127937,0.306235 0.293914,0.597645 0.498161,0.874365 0.489381,0.627021 1.147827,1.134731 1.955436,1.536341 -1.092264,0.458535 -1.95609,1.101806 -2.59054,1.930114 -0.61736,0.829028 -0.926041,1.781218 -0.926041,2.85719 0,0.643255 0.103925,1.241968 0.304374,1.799374 h 0.780831 v 1.392163 c 0.618006,0.767987 1.427731,1.38112 2.43396,1.835547 1.11125,0.49389 2.381353,0.74104 3.810103,0.74104 1.44639,0 2.716493,-0.24715 3.810103,-0.74104 1.09361,-0.493889 1.948892,-1.172778 2.566252,-2.037085 0.635,-0.864306 0.952397,-1.86111 0.952397,-2.989999 0,-1.075972 -0.317397,-2.028162 -0.952397,-2.85719 -0.616947,-0.828472 -1.471626,-1.472079 -2.564185,-1.930631 0.805259,-0.401562 1.455123,-0.908977 1.929082,-1.535824 0.564444,-0.740833 0.846976,-1.587396 0.846976,-2.539896 0,-1.0054175 -0.282532,-1.8873615 -0.846976,-2.6458338 C 57.040309,7.3143511 56.264506,6.7057062 55.276729,6.2647339 54.288952,5.8237616 53.151141,5.6032756 51.863501,5.6032756 Z m 0,3.49281 c 0.45861,0 0.864203,0.096911 1.21698,0.2909383 0.352777,0.176389 0.626078,0.4322559 0.820105,0.7673951 0.194027,0.3175 0.290938,0.68771 0.290938,1.111043 0,0.405695 -0.105626,0.776421 -0.317293,1.11156 -0.194027,0.3175 -0.467328,0.572851 -0.820105,0.766879 -0.33514,0.176389 -0.732015,0.264583 -1.190625,0.264583 -0.440973,0 -0.837848,-0.08819 -1.190625,-0.264583 -0.352777,-0.194028 -0.63531,-0.449379 -0.846977,-0.766879 -0.194027,-0.335139 -0.290938,-0.705865 -0.290938,-1.11156 0,-0.423333 0.09691,-0.793543 0.290938,-1.111043 0.194027,-0.3351392 0.467845,-0.5910061 0.820622,-0.7673951 0.352777,-0.1940277 0.75837,-0.2909383 1.21698,-0.2909383 z m 0,7.8315634 c 0.582083,0 1.084584,0.105627 1.507918,0.317293 0.440973,0.194028 0.776317,0.47656 1.005624,0.846977 0.246943,0.352778 0.37052,0.775801 0.37052,1.26969 0,0.47625 -0.123577,0.89979 -0.37052,1.270207 -0.229307,0.352777 -0.564651,0.634793 -1.005624,0.84646 -0.423334,0.194026 -0.925835,0.291455 -1.507918,0.291455 -0.564443,0 -1.067462,-0.09743 -1.508435,-0.291455 -0.440974,-0.211667 -0.784518,-0.493683 -1.031462,-0.84646 -0.229306,-0.370417 -0.344165,-0.793957 -0.344165,-1.270207 0,-0.493889 0.114859,-0.916912 0.344165,-1.26969 0.246944,-0.370417 0.581774,-0.652949 1.005107,-0.846977 0.440974,-0.211666 0.952707,-0.317293 1.53479,-0.317293 z" /><path
           style="font-weight:800;font-size:100px;line-height:1.25;font-family:'Wix Madefor Text';-inkscape-font-specification:'Wix Madefor Text Ultra-Bold';white-space:pre;mix-blend-mode:normal;fill:#ffffff;fill-opacity:1;stroke:none;stroke-width:0.264583;stroke-opacity:1"
           d="m 38.79298,5.6032755 c -1.25236,0 -2.451704,0.3086806 -3.598231,0.9260417 -1.128889,0.5997223 -2.151841,1.4729507 -3.069063,2.6194784 l 2.778125,2.8313514 c 0.617361,-0.881944 1.243439,-1.534686 1.878439,-1.95802 0.65264,-0.4409721 1.331527,-0.6614581 2.037083,-0.6614581 0.81139,0 1.455417,0.2292024 1.931667,0.6878131 0.47625,0.440973 0.714169,1.031668 0.714169,1.772502 0,0.352777 -0.07025,0.696839 -0.211357,1.031978 -0.123473,0.335139 -0.335243,0.687917 -0.635103,1.058334 -0.282223,0.352777 -0.67038,0.758369 -1.16427,1.21698 l -6.879168,6.217708 v 3.598746 h 13.044166 v -3.545519 h -7.329271 l 2.778128,-2.407605 c 1.12889,-0.987778 2.019546,-1.869723 2.672186,-2.645834 0.670277,-0.79375 1.155348,-1.570067 1.455208,-2.32854 0.29986,-0.758472 0.450104,-1.569654 0.450104,-2.43396 0,-1.234722 -0.282535,-2.2930553 -0.846979,-3.1749997 C 44.252007,7.508689 43.467493,6.8205655 42.444437,6.3443155 41.42138,5.8504265 40.204091,5.6032755 38.79298,5.6032755 Z"
           id="path45"
           inkscape:label="Letter 2" /></g><g
         id="g49"
         inkscape:label="5280 Blue Stripe"
         style="display:inline;fill:#44afdc;fill-opacity:1;stroke:#000000;stroke-opacity:1"
         transform="translate(-16.109444,-3.0572668)"><path
           id="path46"
           style="font-weight:800;font-size:100px;line-height:1.25;font-family:'Wix Madefor Text';-inkscape-font-specification:'Wix Madefor Text Ultra-Bold';white-space:pre;mix-blend-mode:normal;fill:#44afdc;fill-opacity:1;stroke:none;stroke-opacity:1"
           inkscape:label="Letter 5"
           d="m 29.654023,41.000682 -2.566406,21.689453 h 14.089844 l 1.060547,-8.291016 H 73.154024 V 41.000682 Z m 30.29297,48.988282 c -0.316317,2.727808 -1.4062,5.069455 -3.292969,7.011718 -2.2,2.266667 -5.165105,3.398438 -8.898438,3.398438 -3.066667,0 -5.967838,-0.833333 -8.701172,-2.5 -2.666667,-1.666667 -4.866276,-4 -6.599609,-7 l -10.5,10.70117 c 2.800001,4 6.466667,7.09883 11,9.29883 4.6,2.13333 9.534114,3.20117 14.800781,3.20117 5.6,0 10.565105,-1.13372 14.898438,-3.40039 4.333333,-2.33333 7.701561,-5.5 10.101562,-9.5 2.071505,-3.359195 3.260117,-7.099548 3.591797,-11.210936 z"
           transform="matrix(0.26458333,0,0,0.26458333,13.404939,-4.8210746)" /><path
           id="path47"
           style="font-weight:800;font-size:100px;line-height:1.25;font-family:'Wix Madefor Text';-inkscape-font-specification:'Wix Madefor Text Ultra-Bold';white-space:pre;mix-blend-mode:normal;fill:#44afdc;fill-opacity:1;stroke:none;stroke-width:0.264583;stroke-opacity:1"
           inkscape:label="Letter O"
           d="m 66.441939,5.6032756 c -1.41111,0 -2.707362,0.247151 -3.889168,0.74104 -1.181807,0.4938889 -2.205273,1.1820124 -3.06958,2.0639567 -0.864306,0.8819444 -1.53448,1.9223287 -2.01073,3.1217737 -0.03082,0.07762 -0.05799,0.157063 -0.08682,0.235644 h 18.086234 c -0.02882,-0.07858 -0.056,-0.158025 -0.08682,-0.235644 C 74.908813,10.330601 74.238123,9.2902167 73.373816,8.4082723 72.50951,7.526328 71.486559,6.8382045 70.304753,6.3443156 69.140586,5.8504266 67.85305,5.6032756 66.441939,5.6032756 Z M 57.30813,18.988505 c 0.05123,0.152431 0.105929,0.303437 0.164331,0.452686 0.47625,1.199444 1.146424,2.240346 2.01073,3.12229 0.864307,0.881944 1.887773,1.569551 3.06958,2.06344 1.181806,0.49389 2.478058,0.74104 3.889168,0.74104 1.411111,0 2.698647,-0.24715 3.862814,-0.74104 1.181806,-0.493889 2.204757,-1.181496 3.069063,-2.06344 0.864307,-0.881944 1.534997,-1.922846 2.011247,-3.12229 0.0584,-0.149249 0.113096,-0.300255 0.164331,-0.452686 z" /><path
           id="path48"
           style="font-weight:800;font-size:100px;line-height:1.25;font-family:'Wix Madefor Text';-inkscape-font-specification:'Wix Madefor Text Ultra-Bold';white-space:pre;mix-blend-mode:normal;fill:#44afdc;fill-opacity:1;stroke:none;stroke-width:0.264583;stroke-opacity:1"
           inkscape:label="Letter 8"
           d="m 51.863501,5.6032756 c -1.27,0 -2.407811,0.220486 -3.413228,0.6614583 -0.987777,0.4409723 -1.764097,1.0496172 -2.32854,1.8257283 -0.564444,0.7584723 -0.84646,1.6404163 -0.84646,2.6458338 0,0.358122 0.03848,0.701212 0.115755,1.029394 h 4.200777 c -0.03549,-0.160716 -0.05684,-0.326662 -0.05684,-0.500228 0,-0.423333 0.09691,-0.793543 0.290938,-1.111043 0.194027,-0.3351392 0.467845,-0.5910061 0.820622,-0.7673951 0.352777,-0.1940277 0.75837,-0.2909383 1.21698,-0.2909383 0.45861,0 0.864203,0.096911 1.21698,0.2909383 0.352777,0.176389 0.626078,0.4322559 0.820105,0.7673951 0.194027,0.3175 0.290938,0.68771 0.290938,1.111043 0,0.173587 -0.0233,0.339494 -0.06201,0.500228 h 4.202327 c 0.07984,-0.32818 0.119889,-0.671275 0.119889,-1.029394 0,-1.0054175 -0.282532,-1.8873615 -0.846976,-2.6458338 C 57.040309,7.3143511 56.264506,6.7057062 55.276729,6.2647339 54.288952,5.8237616 53.151141,5.6032756 51.863501,5.6032756 Z M 44.572473,18.988505 c -0.02326,0.199525 -0.03824,0.402484 -0.03824,0.611332 0,1.128889 0.308681,2.125693 0.926041,2.989999 0.635,0.864307 1.499514,1.543196 2.593124,2.037085 1.11125,0.49389 2.381353,0.74104 3.810103,0.74104 1.44639,0 2.716493,-0.24715 3.810103,-0.74104 1.09361,-0.493889 1.948892,-1.172778 2.566252,-2.037085 0.635,-0.864306 0.952397,-1.86111 0.952397,-2.989999 0,-0.208866 -0.01587,-0.41179 -0.03979,-0.611332 h -4.430738 c 0.01694,0.119625 0.02584,0.243771 0.02584,0.373104 0,0.47625 -0.123577,0.89979 -0.37052,1.270207 -0.229307,0.352777 -0.564651,0.634793 -1.005624,0.84646 -0.423334,0.194026 -0.925835,0.291455 -1.507918,0.291455 -0.564443,0 -1.067462,-0.09743 -1.508435,-0.291455 -0.440974,-0.211667 -0.784518,-0.493683 -1.031462,-0.84646 -0.229306,-0.370417 -0.344165,-0.793957 -0.344165,-1.270207 0,-0.129451 0.009,-0.253379 0.02481,-0.373104 z" /><path
           id="path49"
           style="font-weight:800;font-size:100px;line-height:1.25;font-family:'Wix Madefor Text';-inkscape-font-specification:'Wix Madefor Text Ultra-Bold';white-space:pre;display:inline;mix-blend-mode:normal;fill:#44afdc;fill-opacity:1;stroke:none;stroke-width:0.264583;stroke-opacity:1"
           inkscape:label="Letter 2"
           d="m 38.792981,5.6032756 c -1.25236,0 -2.451703,0.3086805 -3.59823,0.9260416 -1.128889,0.5997223 -2.151841,1.4729507 -3.069063,2.6194784 L 34.69349,11.76569 h 0.365869 c 0.566964,-0.772838 1.141106,-1.355705 1.722892,-1.743563 0.65264,-0.4409718 1.331529,-0.6614581 2.037085,-0.6614581 0.81139,0 1.455415,0.2292027 1.931665,0.6878131 0.464096,0.42972 0.700268,1.002747 0.712101,1.717208 h 4.178557 c 0.0015,-0.06078 0.0041,-0.121103 0.0041,-0.182418 0,-1.234722 -0.282533,-2.2930553 -0.846977,-3.1749997 C 44.25201,7.508689 43.467494,6.8205656 42.444438,6.3443156 c -1.023057,-0.493889 -2.240346,-0.74104 -3.651457,-0.74104 z m -3.609599,13.3852294 -2.608109,2.357479 v 3.598747 h 13.044165 v -3.54552 h -7.329269 l 2.778125,-2.407605 c 0.0012,-0.0011 0.0024,-0.002 0.0036,-0.0031 z" /></g><g
         id="g53"
         inkscape:label="5280 Outline"
         style="display:inline;fill:url(#pattern18);fill-opacity:1;stroke:#000000;stroke-width:0.4;stroke-dasharray:none;stroke-opacity:1"
         transform="translate(-16.109444,-3.0572668)"><path
           id="path50"
           style="font-weight:800;font-size:100px;line-height:1.25;font-family:'Wix Madefor Text';-inkscape-font-specification:'Wix Madefor Text Ultra-Bold';white-space:pre;mix-blend-mode:normal;fill:none;fill-opacity:1;stroke:#000000;stroke-width:1.51181;stroke-dasharray:none;stroke-opacity:1"
           inkscape:label="Letter 5"
           d="M 29.654023,41.000682 24.755586,82.39912 h 13.898437 c 1.133333,-1.933333 2.633334,-3.398438 4.500001,-4.398438 1.866667,-1 3.866667,-1.5 6,-1.5 2.266667,0 4.200781,0.5 5.800781,1.5 1.6,1 2.832552,2.399219 3.699219,4.199219 0.933333,1.733333 1.40039,3.766276 1.40039,6.099609 0,3.466667 -1.133724,6.367839 -3.40039,8.701172 -2.2,2.266667 -5.165105,3.398438 -8.898438,3.398438 -3.066667,0 -5.967838,-0.833333 -8.701172,-2.5 -2.666667,-1.666667 -4.866276,-4 -6.599609,-7 l -10.5,10.70117 c 2.800001,4 6.466667,7.09883 11,9.29883 4.6,2.13333 9.534114,3.20117 14.800781,3.20117 5.6,0 10.565105,-1.13372 14.898438,-3.40039 4.160984,-2.24053 7.422285,-5.2579 9.800781,-9.03516 v -2.76562 l 2.486328,-2.246094 c 1.00584,-2.800623 1.513672,-5.816938 1.513672,-9.052734 0,-4.733333 -0.934114,-8.932943 -2.800781,-12.59961 -1.866666,-3.666667 -4.498438,-6.567839 -7.898438,-8.701172 -3.333333,-2.133333 -7.201562,-3.199219 -11.601562,-3.199219 -3.733334,0 -7.09961,0.800391 -10.09961,2.400391 -1.292719,0.67574 -2.463273,1.502805 -3.548828,2.4375 L 42.238008,54.399119 H 72.325899 L 70.755586,52.79951 c 0.77809,-0.972612 1.580077,-1.885377 2.398438,-2.753906 v -9.044922 z"
           transform="matrix(0.26458333,0,0,0.26458333,13.404939,-4.8210746)" /><path
           id="path51"
           style="font-weight:800;font-size:100px;line-height:1.25;font-family:'Wix Madefor Text';-inkscape-font-specification:'Wix Madefor Text Ultra-Bold';white-space:pre;mix-blend-mode:normal;fill:none;fill-opacity:1;stroke:#000000;stroke-width:0.4;stroke-dasharray:none;stroke-opacity:1"
           inkscape:label="Letter O"
           d="m 66.441939,5.6032756 c -1.41111,0 -2.707362,0.247151 -3.889168,0.74104 -1.181807,0.4938889 -2.205273,1.1820124 -3.06958,2.0639567 -0.420182,0.4287569 -0.793452,0.8956778 -1.121895,1.3993978 0.05821,0.2973109 0.09043,0.6058659 0.09043,0.9286259 0,0.9525 -0.282532,1.799063 -0.846976,2.539896 -0.217351,0.287463 -0.473386,0.548493 -0.762745,0.787032 -0.05089,0.427188 -0.07833,0.86559 -0.08165,1.315682 0.590299,0.378923 1.084316,0.83307 1.479496,1.363741 0.635,0.829028 0.952397,1.781218 0.952397,2.85719 0,0.765482 -0.149893,1.468645 -0.441834,2.112533 0.227034,0.297754 0.469802,0.582774 0.732772,0.851111 0.864307,0.881944 1.887773,1.569551 3.06958,2.06344 1.181806,0.49389 2.478058,0.74104 3.889168,0.74104 1.411111,0 2.698647,-0.24715 3.862814,-0.74104 1.181806,-0.493889 2.204757,-1.181496 3.069063,-2.06344 0.864307,-0.881944 1.534997,-1.922846 2.011247,-3.12229 0.47625,-1.217084 0.714168,-2.54 0.714168,-3.96875 0,-1.42875 -0.237918,-2.742951 -0.714168,-3.942395 C 74.908813,10.330601 74.238123,9.2902167 73.373816,8.4082723 72.50951,7.526328 71.486559,6.8382045 70.304753,6.3443156 69.140586,5.8504266 67.85305,5.6032756 66.441939,5.6032756 Z" /><path
           id="path52"
           style="font-weight:800;font-size:100px;line-height:1.25;font-family:'Wix Madefor Text';-inkscape-font-specification:'Wix Madefor Text Ultra-Bold';white-space:pre;mix-blend-mode:normal;fill:none;fill-opacity:1;stroke:#000000;stroke-width:0.4;stroke-dasharray:none;stroke-opacity:1"
           inkscape:label="Letter 8"
           d="m 51.863501,5.6032756 c -1.27,0 -2.407811,0.220486 -3.413228,0.6614583 -0.987777,0.4409723 -1.764097,1.0496172 -2.32854,1.8257283 -0.362299,0.4868386 -0.6067,1.0252769 -0.73639,1.613855 0.171568,0.5733868 0.26045,1.1983918 0.26045,1.8789548 0,0.278608 -0.01737,0.550974 -0.04858,0.818555 0.127937,0.306235 0.293914,0.597645 0.498161,0.874365 0.489381,0.627021 1.147827,1.134731 1.955436,1.536341 -1.092264,0.458535 -1.95609,1.101806 -2.59054,1.930114 -0.61736,0.829028 -0.926041,1.781218 -0.926041,2.85719 0,0.643255 0.103925,1.241968 0.304374,1.799374 h 0.780831 v 1.392163 c 0.618006,0.767987 1.427731,1.38112 2.43396,1.835547 1.11125,0.49389 2.381353,0.74104 3.810103,0.74104 1.44639,0 2.716493,-0.24715 3.810103,-0.74104 1.09361,-0.493889 1.948892,-1.172778 2.566252,-2.037085 0.635,-0.864306 0.952397,-1.86111 0.952397,-2.989999 0,-1.075972 -0.317397,-2.028162 -0.952397,-2.85719 -0.616947,-0.828472 -1.471626,-1.472079 -2.564185,-1.930631 0.805259,-0.401562 1.455123,-0.908977 1.929082,-1.535824 0.564444,-0.740833 0.846976,-1.587396 0.846976,-2.539896 0,-1.0054175 -0.282532,-1.8873615 -0.846976,-2.6458338 C 57.040309,7.3143511 56.264506,6.7057062 55.276729,6.2647339 54.288952,5.8237616 53.151141,5.6032756 51.863501,5.6032756 Z m 0,3.49281 c 0.45861,0 0.864203,0.096911 1.21698,0.2909383 0.352777,0.176389 0.626078,0.4322559 0.820105,0.7673951 0.194027,0.3175 0.290938,0.68771 0.290938,1.111043 0,0.405695 -0.105626,0.776421 -0.317293,1.11156 -0.194027,0.3175 -0.467328,0.572851 -0.820105,0.766879 -0.33514,0.176389 -0.732015,0.264583 -1.190625,0.264583 -0.440973,0 -0.837848,-0.08819 -1.190625,-0.264583 -0.352777,-0.194028 -0.63531,-0.449379 -0.846977,-0.766879 -0.194027,-0.335139 -0.290938,-0.705865 -0.290938,-1.11156 0,-0.423333 0.09691,-0.793543 0.290938,-1.111043 0.194027,-0.3351392 0.467845,-0.5910061 0.820622,-0.7673951 0.352777,-0.1940277 0.75837,-0.2909383 1.21698,-0.2909383 z m 0,7.8315634 c 0.582083,0 1.084584,0.105627 1.507918,0.317293 0.440973,0.194028 0.776317,0.47656 1.005624,0.846977 0.246943,0.352778 0.37052,0.775801 0.37052,1.26969 0,0.47625 -0.123577,0.89979 -0.37052,1.270207 -0.229307,0.352777 -0.564651,0.634793 -1.005624,0.84646 -0.423334,0.194026 -0.925835,0.291455 -1.507918,0.291455 -0.564443,0 -1.067462,-0.09743 -1.508435,-0.291455 -0.440974,-0.211667 -0.784518,-0.493683 -1.031462,-0.84646 -0.229306,-0.370417 -0.344165,-0.793957 -0.344165,-1.270207 0,-0.493889 0.114859,-0.916912 0.344165,-1.26969 0.246944,-0.370417 0.581774,-0.652949 1.005107,-0.846977 0.440974,-0.211666 0.952707,-0.317293 1.53479,-0.317293 z" /><path
           style="font-weight:800;font-size:100px;line-height:1.25;font-family:'Wix Madefor Text';-inkscape-font-specification:'Wix Madefor Text Ultra-Bold';white-space:pre;mix-blend-mode:normal;fill:none;fill-opacity:1;stroke:#000000;stroke-width:0.4;stroke-dasharray:none;stroke-opacity:1"
           d="m 38.79298,5.6032755 c -1.25236,0 -2.451704,0.3086806 -3.598231,0.9260417 -1.128889,0.5997223 -2.151841,1.4729507 -3.069063,2.6194784 l 2.778125,2.8313514 c 0.617361,-0.881944 1.243439,-1.534686 1.878439,-1.95802 0.65264,-0.4409721 1.331527,-0.6614581 2.037083,-0.6614581 0.81139,0 1.455417,0.2292024 1.931667,0.6878131 0.47625,0.440973 0.714169,1.031668 0.714169,1.772502 0,0.352777 -0.07025,0.696839 -0.211357,1.031978 -0.123473,0.335139 -0.335243,0.687917 -0.635103,1.058334 -0.282223,0.352777 -0.67038,0.758369 -1.16427,1.21698 l -6.879168,6.217708 v 3.598746 h 13.044166 v -3.545519 h -7.329271 l 2.778128,-2.407605 c 1.12889,-0.987778 2.019546,-1.869723 2.672186,-2.645834 0.670277,-0.79375 1.155348,-1.570067 1.455208,-2.32854 0.29986,-0.758472 0.450104,-1.569654 0.450104,-2.43396 0,-1.234722 -0.282535,-2.2930553 -0.846979,-3.1749997 C 44.252007,7.508689 43.467493,6.8205655 42.444437,6.3443155 41.42138,5.8504265 40.204091,5.6032755 38.79298,5.6032755 Z"
           id="path53"
           inkscape:label="Letter 2" /></g><circle
         style="fill:#fabe56;fill-opacity:1;stroke:none;stroke-width:2.6;stroke-dasharray:none;stroke-opacity:1"
         id="circle53"
         cx="50.520958"
         cy="12.28786"
         inkscape:label="Colorado Yellow"
         r="3.25" /><path
         style="fill:none;fill-opacity:1;stroke:#af1141;stroke-width:2.6;stroke-dasharray:none;stroke-opacity:1"
         id="path54"
         sodipodi:type="arc"
         sodipodi:cx="50.562492"
         sodipodi:cy="12.317231"
         sodipodi:rx="4.5"
         sodipodi:ry="4.5"
         sodipodi:start="0.45733357"
         sodipodi:end="5.850576"
         sodipodi:arc-type="arc"
         d="m 54.600041,14.304239 a 4.5,4.5 0 0 1 -5.084676,2.389466 4.5,4.5 0 0 1 -3.452529,-4.432102 4.5,4.5 0 0 1 3.561043,-4.345395 4.5,4.5 0 0 1 5.02405,2.514438"
         sodipodi:open="true"
         inkscape:label="Colorado Red" /></g><g
       id="g42"
       inkscape:label="5280 Logo"
       inkscape:export-filename="5280 Synchro Print.png"
       inkscape:export-xdpi="96"
       inkscape:export-ydpi="96"><g
         id="g35"
         inkscape:label="5280 White"
         style="display:inline;fill:url(#pattern18);fill-opacity:1;stroke:#000000;stroke-opacity:1"
         transform="translate(-16.109444,-3.0572668)"><path
           id="path32"
           style="font-weight:800;font-size:100px;line-height:1.25;font-family:'Wix Madefor Text';-inkscape-font-specification:'Wix Madefor Text Ultra-Bold';white-space:pre;mix-blend-mode:normal;fill:#ffffff;fill-opacity:1;stroke:none;stroke-opacity:1"
           inkscape:label="Letter 5"
           d="M 29.654023,41.000682 24.755586,82.39912 h 13.898437 c 1.133333,-1.933333 2.633334,-3.398438 4.500001,-4.398438 1.866667,-1 3.866667,-1.5 6,-1.5 2.266667,0 4.200781,0.5 5.800781,1.5 1.6,1 2.832552,2.399219 3.699219,4.199219 0.933333,1.733333 1.40039,3.766276 1.40039,6.099609 0,3.466667 -1.133724,6.367839 -3.40039,8.701172 -2.2,2.266667 -5.165105,3.398438 -8.898438,3.398438 -3.066667,0 -5.967838,-0.833333 -8.701172,-2.5 -2.666667,-1.666667 -4.866276,-4 -6.599609,-7 l -10.5,10.70117 c 2.800001,4 6.466667,7.09883 11,9.29883 4.6,2.13333 9.534114,3.20117 14.800781,3.20117 5.6,0 10.565105,-1.13372 14.898438,-3.40039 4.160984,-2.24053 7.422285,-5.2579 9.800781,-9.03516 v -2.76562 l 2.486328,-2.246094 c 1.00584,-2.800623 1.513672,-5.816938 1.513672,-9.052734 0,-4.733333 -0.934114,-8.932943 -2.800781,-12.59961 -1.866666,-3.666667 -4.498438,-6.567839 -7.898438,-8.701172 -3.333333,-2.133333 -7.201562,-3.199219 -11.601562,-3.199219 -3.733334,0 -7.09961,0.800391 -10.09961,2.400391 -1.292719,0.67574 -2.463273,1.502805 -3.548828,2.4375 L 42.238008,54.399119 H 72.325899 L 70.755586,52.79951 c 0.77809,-0.972612 1.580077,-1.885377 2.398438,-2.753906 v -9.044922 z"
           transform="matrix(0.26458333,0,0,0.26458333,13.404939,-4.8210746)" /><path
           id="path33"
           style="font-weight:800;font-size:100px;line-height:1.25;font-family:'Wix Madefor Text';-inkscape-font-specification:'Wix Madefor Text Ultra-Bold';white-space:pre;mix-blend-mode:normal;fill:#ffffff;fill-opacity:1;stroke:none;stroke-width:0.264583;stroke-opacity:1"
           inkscape:label="Letter O"
           d="m 66.441939,5.6032756 c -1.41111,0 -2.707362,0.247151 -3.889168,0.74104 -1.181807,0.4938889 -2.205273,1.1820124 -3.06958,2.0639567 -0.420182,0.4287569 -0.793452,0.8956778 -1.121895,1.3993978 0.05821,0.2973109 0.09043,0.6058659 0.09043,0.9286259 0,0.9525 -0.282532,1.799063 -0.846976,2.539896 -0.217351,0.287463 -0.473386,0.548493 -0.762745,0.787032 -0.05089,0.427188 -0.07833,0.86559 -0.08165,1.315682 0.590299,0.378923 1.084316,0.83307 1.479496,1.363741 0.635,0.829028 0.952397,1.781218 0.952397,2.85719 0,0.765482 -0.149893,1.468645 -0.441834,2.112533 0.227034,0.297754 0.469802,0.582774 0.732772,0.851111 0.864307,0.881944 1.887773,1.569551 3.06958,2.06344 1.181806,0.49389 2.478058,0.74104 3.889168,0.74104 1.411111,0 2.698647,-0.24715 3.862814,-0.74104 1.181806,-0.493889 2.204757,-1.181496 3.069063,-2.06344 0.864307,-0.881944 1.534997,-1.922846 2.011247,-3.12229 0.47625,-1.217084 0.714168,-2.54 0.714168,-3.96875 0,-1.42875 -0.237918,-2.742951 -0.714168,-3.942395 C 74.908813,10.330601 74.238123,9.2902167 73.373816,8.4082723 72.50951,7.526328 71.486559,6.8382045 70.304753,6.3443156 69.140586,5.8504266 67.85305,5.6032756 66.441939,5.6032756 Z" /><path
           id="path34"
           style="font-weight:800;font-size:100px;line-height:1.25;font-family:'Wix Madefor Text';-inkscape-font-specification:'Wix Madefor Text Ultra-Bold';white-space:pre;mix-blend-mode:normal;fill:#ffffff;fill-opacity:1;stroke:none;stroke-width:0.264583;stroke-opacity:1"
           inkscape:label="Letter 8"
           d="m 51.863501,5.6032756 c -1.27,0 -2.407811,0.220486 -3.413228,0.6614583 -0.987777,0.4409723 -1.764097,1.0496172 -2.32854,1.8257283 -0.362299,0.4868386 -0.6067,1.0252769 -0.73639,1.613855 0.171568,0.5733868 0.26045,1.1983918 0.26045,1.8789548 0,0.278608 -0.01737,0.550974 -0.04858,0.818555 0.127937,0.306235 0.293914,0.597645 0.498161,0.874365 0.489381,0.627021 1.147827,1.134731 1.955436,1.536341 -1.092264,0.458535 -1.95609,1.101806 -2.59054,1.930114 -0.61736,0.829028 -0.926041,1.781218 -0.926041,2.85719 0,0.643255 0.103925,1.241968 0.304374,1.799374 h 0.780831 v 1.392163 c 0.618006,0.767987 1.427731,1.38112 2.43396,1.835547 1.11125,0.49389 2.381353,0.74104 3.810103,0.74104 1.44639,0 2.716493,-0.24715 3.810103,-0.74104 1.09361,-0.493889 1.948892,-1.172778 2.566252,-2.037085 0.635,-0.864306 0.952397,-1.86111 0.952397,-2.989999 0,-1.075972 -0.317397,-2.028162 -0.952397,-2.85719 -0.616947,-0.828472 -1.471626,-1.472079 -2.564185,-1.930631 0.805259,-0.401562 1.455123,-0.908977 1.929082,-1.535824 0.564444,-0.740833 0.846976,-1.587396 0.846976,-2.539896 0,-1.0054175 -0.282532,-1.8873615 -0.846976,-2.6458338 C 57.040309,7.3143511 56.264506,6.7057062 55.276729,6.2647339 54.288952,5.8237616 53.151141,5.6032756 51.863501,5.6032756 Z m 0,3.49281 c 0.45861,0 0.864203,0.096911 1.21698,0.2909383 0.352777,0.176389 0.626078,0.4322559 0.820105,0.7673951 0.194027,0.3175 0.290938,0.68771 0.290938,1.111043 0,0.405695 -0.105626,0.776421 -0.317293,1.11156 -0.194027,0.3175 -0.467328,0.572851 -0.820105,0.766879 -0.33514,0.176389 -0.732015,0.264583 -1.190625,0.264583 -0.440973,0 -0.837848,-0.08819 -1.190625,-0.264583 -0.352777,-0.194028 -0.63531,-0.449379 -0.846977,-0.766879 -0.194027,-0.335139 -0.290938,-0.705865 -0.290938,-1.11156 0,-0.423333 0.09691,-0.793543 0.290938,-1.111043 0.194027,-0.3351392 0.467845,-0.5910061 0.820622,-0.7673951 0.352777,-0.1940277 0.75837,-0.2909383 1.21698,-0.2909383 z m 0,7.8315634 c 0.582083,0 1.084584,0.105627 1.507918,0.317293 0.440973,0.194028 0.776317,0.47656 1.005624,0.846977 0.246943,0.352778 0.37052,0.775801 0.37052,1.26969 0,0.47625 -0.123577,0.89979 -0.37052,1.270207 -0.229307,0.352777 -0.564651,0.634793 -1.005624,0.84646 -0.423334,0.194026 -0.925835,0.291455 -1.507918,0.291455 -0.564443,0 -1.067462,-0.09743 -1.508435,-0.291455 -0.440974,-0.211667 -0.784518,-0.493683 -1.031462,-0.84646 -0.229306,-0.370417 -0.344165,-0.793957 -0.344165,-1.270207 0,-0.493889 0.114859,-0.916912 0.344165,-1.26969 0.246944,-0.370417 0.581774,-0.652949 1.005107,-0.846977 0.440974,-0.211666 0.952707,-0.317293 1.53479,-0.317293 z" /><path
           style="font-weight:800;font-size:100px;line-height:1.25;font-family:'Wix Madefor Text';-inkscape-font-specification:'Wix Madefor Text Ultra-Bold';white-space:pre;mix-blend-mode:normal;fill:#ffffff;fill-opacity:1;stroke:none;stroke-width:0.264583;stroke-opacity:1"
           d="m 38.79298,5.6032755 c -1.25236,0 -2.451704,0.3086806 -3.598231,0.9260417 -1.128889,0.5997223 -2.151841,1.4729507 -3.069063,2.6194784 l 2.778125,2.8313514 c 0.617361,-0.881944 1.243439,-1.534686 1.878439,-1.95802 0.65264,-0.4409721 1.331527,-0.6614581 2.037083,-0.6614581 0.81139,0 1.455417,0.2292024 1.931667,0.6878131 0.47625,0.440973 0.714169,1.031668 0.714169,1.772502 0,0.352777 -0.07025,0.696839 -0.211357,1.031978 -0.123473,0.335139 -0.335243,0.687917 -0.635103,1.058334 -0.282223,0.352777 -0.67038,0.758369 -1.16427,1.21698 l -6.879168,6.217708 v 3.598746 h 13.044166 v -3.545519 h -7.329271 l 2.778128,-2.407605 c 1.12889,-0.987778 2.019546,-1.869723 2.672186,-2.645834 0.670277,-0.79375 1.155348,-1.570067 1.455208,-2.32854 0.29986,-0.758472 0.450104,-1.569654 0.450104,-2.43396 0,-1.234722 -0.282535,-2.2930553 -0.846979,-3.1749997 C 44.252007,7.508689 43.467493,6.8205655 42.444437,6.3443155 41.42138,5.8504265 40.204091,5.6032755 38.79298,5.6032755 Z"
           id="path35"
           inkscape:label="Letter 2" /></g><g
         id="g28"
         inkscape:label="5280 Blue Stripe"
         style="display:inline;fill:#44afdc;fill-opacity:1;stroke:#000000;stroke-opacity:1"
         transform="translate(-16.109444,-3.0572668)"><path
           id="path25"
           style="font-weight:800;font-size:100px;line-height:1.25;font-family:'Wix Madefor Text';-inkscape-font-specification:'Wix Madefor Text Ultra-Bold';white-space:pre;mix-blend-mode:normal;fill:#44afdc;fill-opacity:1;stroke:none;stroke-opacity:1"
           inkscape:label="Letter 5"
           d="m 29.654023,41.000682 -2.566406,21.689453 h 14.089844 l 1.060547,-8.291016 H 73.154024 V 41.000682 Z m 30.29297,48.988282 c -0.316317,2.727808 -1.4062,5.069455 -3.292969,7.011718 -2.2,2.266667 -5.165105,3.398438 -8.898438,3.398438 -3.066667,0 -5.967838,-0.833333 -8.701172,-2.5 -2.666667,-1.666667 -4.866276,-4 -6.599609,-7 l -10.5,10.70117 c 2.800001,4 6.466667,7.09883 11,9.29883 4.6,2.13333 9.534114,3.20117 14.800781,3.20117 5.6,0 10.565105,-1.13372 14.898438,-3.40039 4.333333,-2.33333 7.701561,-5.5 10.101562,-9.5 2.071505,-3.359195 3.260117,-7.099548 3.591797,-11.210936 z"
           transform="matrix(0.26458333,0,0,0.26458333,13.404939,-4.8210746)" /><path
           id="path26"
           style="font-weight:800;font-size:100px;line-height:1.25;font-family:'Wix Madefor Text';-inkscape-font-specification:'Wix Madefor Text Ultra-Bold';white-space:pre;mix-blend-mode:normal;fill:#44afdc;fill-opacity:1;stroke:none;stroke-width:0.264583;stroke-opacity:1"
           inkscape:label="Letter O"
           d="m 66.441939,5.6032756 c -1.41111,0 -2.707362,0.247151 -3.889168,0.74104 -1.181807,0.4938889 -2.205273,1.1820124 -3.06958,2.0639567 -0.864306,0.8819444 -1.53448,1.9223287 -2.01073,3.1217737 -0.03082,0.07762 -0.05799,0.157063 -0.08682,0.235644 h 18.086234 c -0.02882,-0.07858 -0.056,-0.158025 -0.08682,-0.235644 C 74.908813,10.330601 74.238123,9.2902167 73.373816,8.4082723 72.50951,7.526328 71.486559,6.8382045 70.304753,6.3443156 69.140586,5.8504266 67.85305,5.6032756 66.441939,5.6032756 Z M 57.30813,18.988505 c 0.05123,0.152431 0.105929,0.303437 0.164331,0.452686 0.47625,1.199444 1.146424,2.240346 2.01073,3.12229 0.864307,0.881944 1.887773,1.569551 3.06958,2.06344 1.181806,0.49389 2.478058,0.74104 3.889168,0.74104 1.411111,0 2.698647,-0.24715 3.862814,-0.74104 1.181806,-0.493889 2.204757,-1.181496 3.069063,-2.06344 0.864307,-0.881944 1.534997,-1.922846 2.011247,-3.12229 0.0584,-0.149249 0.113096,-0.300255 0.164331,-0.452686 z" /><path
           id="path27"
           style="font-weight:800;font-size:100px;line-height:1.25;font-family:'Wix Madefor Text';-inkscape-font-specification:'Wix Madefor Text Ultra-Bold';white-space:pre;mix-blend-mode:normal;fill:#44afdc;fill-opacity:1;stroke:none;stroke-width:0.264583;stroke-opacity:1"
           inkscape:label="Letter 8"
           d="m 51.863501,5.6032756 c -1.27,0 -2.407811,0.220486 -3.413228,0.6614583 -0.987777,0.4409723 -1.764097,1.0496172 -2.32854,1.8257283 -0.564444,0.7584723 -0.84646,1.6404163 -0.84646,2.6458338 0,0.358122 0.03848,0.701212 0.115755,1.029394 h 4.200777 c -0.03549,-0.160716 -0.05684,-0.326662 -0.05684,-0.500228 0,-0.423333 0.09691,-0.793543 0.290938,-1.111043 0.194027,-0.3351392 0.467845,-0.5910061 0.820622,-0.7673951 0.352777,-0.1940277 0.75837,-0.2909383 1.21698,-0.2909383 0.45861,0 0.864203,0.096911 1.21698,0.2909383 0.352777,0.176389 0.626078,0.4322559 0.820105,0.7673951 0.194027,0.3175 0.290938,0.68771 0.290938,1.111043 0,0.173587 -0.0233,0.339494 -0.06201,0.500228 h 4.202327 c 0.07984,-0.32818 0.119889,-0.671275 0.119889,-1.029394 0,-1.0054175 -0.282532,-1.8873615 -0.846976,-2.6458338 C 57.040309,7.3143511 56.264506,6.7057062 55.276729,6.2647339 54.288952,5.8237616 53.151141,5.6032756 51.863501,5.6032756 Z M 44.572473,18.988505 c -0.02326,0.199525 -0.03824,0.402484 -0.03824,0.611332 0,1.128889 0.308681,2.125693 0.926041,2.989999 0.635,0.864307 1.499514,1.543196 2.593124,2.037085 1.11125,0.49389 2.381353,0.74104 3.810103,0.74104 1.44639,0 2.716493,-0.24715 3.810103,-0.74104 1.09361,-0.493889 1.948892,-1.172778 2.566252,-2.037085 0.635,-0.864306 0.952397,-1.86111 0.952397,-2.989999 0,-0.208866 -0.01587,-0.41179 -0.03979,-0.611332 h -4.430738 c 0.01694,0.119625 0.02584,0.243771 0.02584,0.373104 0,0.47625 -0.123577,0.89979 -0.37052,1.270207 -0.229307,0.352777 -0.564651,0.634793 -1.005624,0.84646 -0.423334,0.194026 -0.925835,0.291455 -1.507918,0.291455 -0.564443,0 -1.067462,-0.09743 -1.508435,-0.291455 -0.440974,-0.211667 -0.784518,-0.493683 -1.031462,-0.84646 -0.229306,-0.370417 -0.344165,-0.793957 -0.344165,-1.270207 0,-0.129451 0.009,-0.253379 0.02481,-0.373104 z" /><path
           id="path28"
           style="font-weight:800;font-size:100px;line-height:1.25;font-family:'Wix Madefor Text';-inkscape-font-specification:'Wix Madefor Text Ultra-Bold';white-space:pre;display:inline;mix-blend-mode:normal;fill:#44afdc;fill-opacity:1;stroke:none;stroke-width:0.264583;stroke-opacity:1"
           inkscape:label="Letter 2"
           d="m 38.792981,5.6032756 c -1.25236,0 -2.451703,0.3086805 -3.59823,0.9260416 -1.128889,0.5997223 -2.151841,1.4729507 -3.069063,2.6194784 L 34.69349,11.76569 h 0.365869 c 0.566964,-0.772838 1.141106,-1.355705 1.722892,-1.743563 0.65264,-0.4409718 1.331529,-0.6614581 2.037085,-0.6614581 0.81139,0 1.455415,0.2292027 1.931665,0.6878131 0.464096,0.42972 0.700268,1.002747 0.712101,1.717208 h 4.178557 c 0.0015,-0.06078 0.0041,-0.121103 0.0041,-0.182418 0,-1.234722 -0.282533,-2.2930553 -0.846977,-3.1749997 C 44.25201,7.508689 43.467494,6.8205656 42.444438,6.3443156 c -1.023057,-0.493889 -2.240346,-0.74104 -3.651457,-0.74104 z m -3.609599,13.3852294 -2.608109,2.357479 v 3.598747 h 13.044165 v -3.54552 h -7.329269 l 2.778125,-2.407605 c 0.0012,-0.0011 0.0024,-0.002 0.0036,-0.0031 z" /></g><g
         id="g39"
         inkscape:label="5280 Outline"
         style="display:inline;fill:url(#pattern18);fill-opacity:1;stroke:#000000;stroke-width:0.4;stroke-dasharray:none;stroke-opacity:1"
         transform="translate(-16.109444,-3.0572668)"><path
           id="path36"
           style="font-weight:800;font-size:100px;line-height:1.25;font-family:'Wix Madefor Text';-inkscape-font-specification:'Wix Madefor Text Ultra-Bold';white-space:pre;mix-blend-mode:normal;fill:none;fill-opacity:1;stroke:#000000;stroke-width:1.51181;stroke-dasharray:none;stroke-opacity:1"
           inkscape:label="Letter 5"
           d="M 29.654023,41.000682 24.755586,82.39912 h 13.898437 c 1.133333,-1.933333 2.633334,-3.398438 4.500001,-4.398438 1.866667,-1 3.866667,-1.5 6,-1.5 2.266667,0 4.200781,0.5 5.800781,1.5 1.6,1 2.832552,2.399219 3.699219,4.199219 0.933333,1.733333 1.40039,3.766276 1.40039,6.099609 0,3.466667 -1.133724,6.367839 -3.40039,8.701172 -2.2,2.266667 -5.165105,3.398438 -8.898438,3.398438 -3.066667,0 -5.967838,-0.833333 -8.701172,-2.5 -2.666667,-1.666667 -4.866276,-4 -6.599609,-7 l -10.5,10.70117 c 2.800001,4 6.466667,7.09883 11,9.29883 4.6,2.13333 9.534114,3.20117 14.800781,3.20117 5.6,0 10.565105,-1.13372 14.898438,-3.40039 4.160984,-2.24053 7.422285,-5.2579 9.800781,-9.03516 v -2.76562 l 2.486328,-2.246094 c 1.00584,-2.800623 1.513672,-5.816938 1.513672,-9.052734 0,-4.733333 -0.934114,-8.932943 -2.800781,-12.59961 -1.866666,-3.666667 -4.498438,-6.567839 -7.898438,-8.701172 -3.333333,-2.133333 -7.201562,-3.199219 -11.601562,-3.199219 -3.733334,0 -7.09961,0.800391 -10.09961,2.400391 -1.292719,0.67574 -2.463273,1.502805 -3.548828,2.4375 L 42.238008,54.399119 H 72.325899 L 70.755586,52.79951 c 0.77809,-0.972612 1.580077,-1.885377 2.398438,-2.753906 v -9.044922 z"
           transform="matrix(0.26458333,0,0,0.26458333,13.404939,-4.8210746)" /><path
           id="path37"
           style="font-weight:800;font-size:100px;line-height:1.25;font-family:'Wix Madefor Text';-inkscape-font-specification:'Wix Madefor Text Ultra-Bold';white-space:pre;mix-blend-mode:normal;fill:none;fill-opacity:1;stroke:#000000;stroke-width:0.4;stroke-dasharray:none;stroke-opacity:1"
           inkscape:label="Letter O"
           d="m 66.441939,5.6032756 c -1.41111,0 -2.707362,0.247151 -3.889168,0.74104 -1.181807,0.4938889 -2.205273,1.1820124 -3.06958,2.0639567 -0.420182,0.4287569 -0.793452,0.8956778 -1.121895,1.3993978 0.05821,0.2973109 0.09043,0.6058659 0.09043,0.9286259 0,0.9525 -0.282532,1.799063 -0.846976,2.539896 -0.217351,0.287463 -0.473386,0.548493 -0.762745,0.787032 -0.05089,0.427188 -0.07833,0.86559 -0.08165,1.315682 0.590299,0.378923 1.084316,0.83307 1.479496,1.363741 0.635,0.829028 0.952397,1.781218 0.952397,2.85719 0,0.765482 -0.149893,1.468645 -0.441834,2.112533 0.227034,0.297754 0.469802,0.582774 0.732772,0.851111 0.864307,0.881944 1.887773,1.569551 3.06958,2.06344 1.181806,0.49389 2.478058,0.74104 3.889168,0.74104 1.411111,0 2.698647,-0.24715 3.862814,-0.74104 1.181806,-0.493889 2.204757,-1.181496 3.069063,-2.06344 0.864307,-0.881944 1.534997,-1.922846 2.011247,-3.12229 0.47625,-1.217084 0.714168,-2.54 0.714168,-3.96875 0,-1.42875 -0.237918,-2.742951 -0.714168,-3.942395 C 74.908813,10.330601 74.238123,9.2902167 73.373816,8.4082723 72.50951,7.526328 71.486559,6.8382045 70.304753,6.3443156 69.140586,5.8504266 67.85305,5.6032756 66.441939,5.6032756 Z" /><path
           id="path38"
           style="font-weight:800;font-size:100px;line-height:1.25;font-family:'Wix Madefor Text';-inkscape-font-specification:'Wix Madefor Text Ultra-Bold';white-space:pre;mix-blend-mode:normal;fill:none;fill-opacity:1;stroke:#000000;stroke-width:0.4;stroke-dasharray:none;stroke-opacity:1"
           inkscape:label="Letter 8"
           d="m 51.863501,5.6032756 c -1.27,0 -2.407811,0.220486 -3.413228,0.6614583 -0.987777,0.4409723 -1.764097,1.0496172 -2.32854,1.8257283 -0.362299,0.4868386 -0.6067,1.0252769 -0.73639,1.613855 0.171568,0.5733868 0.26045,1.1983918 0.26045,1.8789548 0,0.278608 -0.01737,0.550974 -0.04858,0.818555 0.127937,0.306235 0.293914,0.597645 0.498161,0.874365 0.489381,0.627021 1.147827,1.134731 1.955436,1.536341 -1.092264,0.458535 -1.95609,1.101806 -2.59054,1.930114 -0.61736,0.829028 -0.926041,1.781218 -0.926041,2.85719 0,0.643255 0.103925,1.241968 0.304374,1.799374 h 0.780831 v 1.392163 c 0.618006,0.767987 1.427731,1.38112 2.43396,1.835547 1.11125,0.49389 2.381353,0.74104 3.810103,0.74104 1.44639,0 2.716493,-0.24715 3.810103,-0.74104 1.09361,-0.493889 1.948892,-1.172778 2.566252,-2.037085 0.635,-0.864306 0.952397,-1.86111 0.952397,-2.989999 0,-1.075972 -0.317397,-2.028162 -0.952397,-2.85719 -0.616947,-0.828472 -1.471626,-1.472079 -2.564185,-1.930631 0.805259,-0.401562 1.455123,-0.908977 1.929082,-1.535824 0.564444,-0.740833 0.846976,-1.587396 0.846976,-2.539896 0,-1.0054175 -0.282532,-1.8873615 -0.846976,-2.6458338 C 57.040309,7.3143511 56.264506,6.7057062 55.276729,6.2647339 54.288952,5.8237616 53.151141,5.6032756 51.863501,5.6032756 Z m 0,3.49281 c 0.45861,0 0.864203,0.096911 1.21698,0.2909383 0.352777,0.176389 0.626078,0.4322559 0.820105,0.7673951 0.194027,0.3175 0.290938,0.68771 0.290938,1.111043 0,0.405695 -0.105626,0.776421 -0.317293,1.11156 -0.194027,0.3175 -0.467328,0.572851 -0.820105,0.766879 -0.33514,0.176389 -0.732015,0.264583 -1.190625,0.264583 -0.440973,0 -0.837848,-0.08819 -1.190625,-0.264583 -0.352777,-0.194028 -0.63531,-0.449379 -0.846977,-0.766879 -0.194027,-0.335139 -0.290938,-0.705865 -0.290938,-1.11156 0,-0.423333 0.09691,-0.793543 0.290938,-1.111043 0.194027,-0.3351392 0.467845,-0.5910061 0.820622,-0.7673951 0.352777,-0.1940277 0.75837,-0.2909383 1.21698,-0.2909383 z m 0,7.8315634 c 0.582083,0 1.084584,0.105627 1.507918,0.317293 0.440973,0.194028 0.776317,0.47656 1.005624,0.846977 0.246943,0.352778 0.37052,0.775801 0.37052,1.26969 0,0.47625 -0.123577,0.89979 -0.37052,1.270207 -0.229307,0.352777 -0.564651,0.634793 -1.005624,0.84646 -0.423334,0.194026 -0.925835,0.291455 -1.507918,0.291455 -0.564443,0 -1.067462,-0.09743 -1.508435,-0.291455 -0.440974,-0.211667 -0.784518,-0.493683 -1.031462,-0.84646 -0.229306,-0.370417 -0.344165,-0.793957 -0.344165,-1.270207 0,-0.493889 0.114859,-0.916912 0.344165,-1.26969 0.246944,-0.370417 0.581774,-0.652949 1.005107,-0.846977 0.440974,-0.211666 0.952707,-0.317293 1.53479,-0.317293 z" /><path
           style="font-weight:800;font-size:100px;line-height:1.25;font-family:'Wix Madefor Text';-inkscape-font-specification:'Wix Madefor Text Ultra-Bold';white-space:pre;mix-blend-mode:normal;fill:none;fill-opacity:1;stroke:#000000;stroke-width:0.4;stroke-dasharray:none;stroke-opacity:1"
           d="m 38.79298,5.6032755 c -1.25236,0 -2.451704,0.3086806 -3.598231,0.9260417 -1.128889,0.5997223 -2.151841,1.4729507 -3.069063,2.6194784 l 2.778125,2.8313514 c 0.617361,-0.881944 1.243439,-1.534686 1.878439,-1.95802 0.65264,-0.4409721 1.331527,-0.6614581 2.037083,-0.6614581 0.81139,0 1.455417,0.2292024 1.931667,0.6878131 0.47625,0.440973 0.714169,1.031668 0.714169,1.772502 0,0.352777 -0.07025,0.696839 -0.211357,1.031978 -0.123473,0.335139 -0.335243,0.687917 -0.635103,1.058334 -0.282223,0.352777 -0.67038,0.758369 -1.16427,1.21698 l -6.879168,6.217708 v 3.598746 h 13.044166 v -3.545519 h -7.329271 l 2.778128,-2.407605 c 1.12889,-0.987778 2.019546,-1.869723 2.672186,-2.645834 0.670277,-0.79375 1.155348,-1.570067 1.455208,-2.32854 0.29986,-0.758472 0.450104,-1.569654 0.450104,-2.43396 0,-1.234722 -0.282535,-2.2930553 -0.846979,-3.1749997 C 44.252007,7.508689 43.467493,6.8205655 42.444437,6.3443155 41.42138,5.8504265 40.204091,5.6032755 38.79298,5.6032755 Z"
           id="path39"
           inkscape:label="Letter 2" /></g><circle
         style="fill:#fabe56;fill-opacity:1;stroke:none;stroke-width:2.6;stroke-dasharray:none;stroke-opacity:1"
         id="path41"
         cx="50.520958"
         cy="12.28786"
         inkscape:label="Colorado Yellow"
         r="3.25" /><path
         style="fill:none;fill-opacity:1;stroke:#af1141;stroke-width:2.6;stroke-dasharray:none;stroke-opacity:1"
         id="path40"
         sodipodi:type="arc"
         sodipodi:cx="50.562492"
         sodipodi:cy="12.317231"
         sodipodi:rx="4.5"
         sodipodi:ry="4.5"
         sodipodi:start="0.45733357"
         sodipodi:end="5.850576"
         sodipodi:arc-type="arc"
         d="m 54.600041,14.304239 a 4.5,4.5 0 0 1 -5.084676,2.389466 4.5,4.5 0 0 1 -3.452529,-4.432102 4.5,4.5 0 0 1 3.561043,-4.345395 4.5,4.5 0 0 1 5.02405,2.514438"
         sodipodi:open="true"
         inkscape:label="Colorado Red" /></g></g></svg>
